<?xml version="1.0" encoding="UTF-8" standalone="no"?>
<svg id="svg2" xmlns:rdf="http://www.w3.org/1999/02/22-rdf-syntax-ns#" xmlns="http://www.w3.org/2000/svg" height="100%" width="100%" version="1.1" xmlns:cc="http://creativecommons.org/ns#" xmlns:dc="http://purl.org/dc/elements/1.1/" viewBox="0 0 63.40625 141.03125">
 <metadata id="metadata240">
  <rdf:RDF>
   <cc:Work rdf:about="">
    <dc:format>image/svg+xml</dc:format>
    <dc:type rdf:resource="http://purl.org/dc/dcmitype/StillImage"/>
    <dc:title/>
   </cc:Work>
  </rdf:RDF>
 </metadata>
 <g id="g6" transform="translate(-44.90307,-15.291)">
  <path id="path8" d="M46.029,33.661v104.58l30.686,17.716v-104.58l-30.686-17.717z" fill="#d3d7cf"/>
  <path id="path10" d="M107.4,42.244v-8.5826l-30.685,17.717v104.58l30.686-17.717" fill="#888a85"/>
  <path id="path12" d="M46.029,33.661,76.715,15.945,107.4,33.661,76.715,51.378,46.029,33.661z" fill="#eeeeec"/>
  <path id="path14" d="M46,33.612,76.715,51.378,107.4,33.661" fill="none" stroke="#FFF"/>
  <path id="path16" d="m76.622,16.291-30.625,17.688h-0.09375l0.03125,103.62,30.688,17.719,30.688-17.719v-103.59l-30.688-17.719v0.00005z" stroke="#2e3436" stroke-width="2" fill="none"/>
 </g>
 <g id="g18" fill="#729fcf" transform="matrix(0.2,0,0,0.2,-32.75454,6.3698338)">
  <g id="g20">
   <path id="path22" d="m184.12,131.1v53.15l30.686,17.717v-53.15l-30.686-17.717z"/>
   <path id="path24" d="m214.8,148.82v53.15" stroke="#FFF" stroke-width="5"/>
  </g>
  <g id="g26" transform="translate(30.68594,17.71653)">
   <path id="path28" d="m184.12,131.1v53.15l30.686,17.717v-53.15l-30.686-17.717z"/>
   <path id="path30" d="m214.8,148.82v53.15" stroke="#FFF" stroke-width="5"/>
  </g>
  <g id="g32" transform="translate(61.37188,35.43307)">
   <path id="path34" d="m184.12,131.1v53.15l30.686,17.717v-53.15l-30.686-17.717z"/>
   <path id="path36" d="m214.8,148.82v53.15" stroke="#FFF" stroke-width="5"/>
  </g>
  <g id="g38" transform="translate(92.05782,53.1496)">
   <path id="path40" d="m184.12,131.1v53.15l30.686,17.717v-53.15l-30.686-17.717z"/>
   <path id="path42" d="m214.8,148.82v53.15" stroke="#FFF" stroke-width="1.25"/>
  </g>
 </g>
 <g id="g44" fill="#729fcf" transform="matrix(0.2,0,0,0.2,-32.75454,24.369834)">
  <g id="g46">
   <path id="path48" d="m184.12,131.1v53.15l30.686,17.717v-53.15l-30.686-17.717z"/>
   <path id="path50" d="m214.8,148.82v53.15" stroke="#FFF" stroke-width="5"/>
  </g>
  <g id="g52" transform="translate(30.68594,17.71653)">
   <path id="path54" d="m184.12,131.1v53.15l30.686,17.717v-53.15l-30.686-17.717z"/>
   <path id="path56" d="m214.8,148.82v53.15" stroke="#FFF" stroke-width="5"/>
  </g>
  <g id="g58" transform="translate(61.37188,35.43307)">
   <path id="path60" d="m184.12,131.1v53.15l30.686,17.717v-53.15l-30.686-17.717z"/>
   <path id="path62" d="m214.8,148.82v53.15" stroke="#FFF" stroke-width="5"/>
  </g>
  <g id="g64" transform="translate(92.05782,53.1496)">
   <path id="path66" d="m184.12,131.1v53.15l30.686,17.717v-53.15l-30.686-17.717z"/>
   <path id="path68" d="m214.8,148.82v53.15" stroke="#FFF" stroke-width="1.25"/>
  </g>
 </g>
 <g id="g70" fill="#729fcf" transform="matrix(0.2,0,0,0.2,-32.75454,42.369834)">
  <g id="g72">
   <path id="path74" d="m184.12,131.1v53.15l30.686,17.717v-53.15l-30.686-17.717z"/>
   <path id="path76" d="m214.8,148.82v53.15" stroke="#FFF" stroke-width="5"/>
  </g>
  <g id="g78" transform="translate(30.68594,17.71653)">
   <path id="path80" d="m184.12,131.1v53.15l30.686,17.717v-53.15l-30.686-17.717z"/>
   <path id="path82" d="m214.8,148.82v53.15" stroke="#FFF" stroke-width="5"/>
  </g>
  <g id="g84" transform="translate(61.37188,35.43307)">
   <path id="path86" d="m184.12,131.1v53.15l30.686,17.717v-53.15l-30.686-17.717z"/>
   <path id="path88" d="m214.8,148.82v53.15" stroke="#FFF" stroke-width="5"/>
  </g>
  <g id="g90" transform="translate(92.05782,53.1496)">
   <path id="path92" d="m184.12,131.1v53.15l30.686,17.717v-53.15l-30.686-17.717z"/>
   <path id="path94" d="m214.8,148.82v53.15" stroke="#FFF" stroke-width="1.25"/>
  </g>
 </g>
 <g id="g96" fill="#729fcf" transform="matrix(0.2,0,0,0.2,-32.75454,60.369834)">
  <g id="g98">
   <path id="path100" d="m184.12,131.1v53.15l30.686,17.717v-53.15l-30.686-17.717z"/>
   <path id="path102" d="m214.8,148.82v53.15" stroke="#FFF" stroke-width="5"/>
  </g>
  <g id="g104" transform="translate(30.68594,17.71653)">
   <path id="path106" d="m184.12,131.1v53.15l30.686,17.717v-53.15l-30.686-17.717z"/>
   <path id="path108" d="m214.8,148.82v53.15" stroke="#FFF" stroke-width="5"/>
  </g>
  <g id="g110" transform="translate(61.37188,35.43307)">
   <path id="path112" d="m184.12,131.1v53.15l30.686,17.717v-53.15l-30.686-17.717z"/>
   <path id="path114" d="m214.8,148.82v53.15" stroke="#FFF" stroke-width="5"/>
  </g>
  <g id="g116" transform="translate(92.05782,53.1496)">
   <path id="path118" d="m184.12,131.1v53.15l30.686,17.717v-53.15l-30.686-17.717z"/>
   <path id="path120" d="m214.8,148.82v53.15" stroke="#FFF" stroke-width="1.25"/>
  </g>
 </g>
 <g id="g122" fill="#3465a4" transform="matrix(-0.2,0,0,0.2,96.1264,6.3698328)">
  <g id="g124">
   <path id="path126" d="m184.12,131.1v53.15l30.686,17.717v-53.15l-30.686-17.717z"/>
   <path id="path128" d="m214.8,148.82v53.15" stroke="#FFF" stroke-width="5"/>
  </g>
  <g id="g130" transform="translate(30.68594,17.71653)">
   <path id="path132" d="m184.12,131.1v53.15l30.686,17.717v-53.15l-30.686-17.717z"/>
   <path id="path134" d="m214.8,148.82v53.15" stroke="#FFF" stroke-width="5"/>
  </g>
  <g id="g136" transform="translate(61.37188,35.43307)">
   <path id="path138" d="m184.12,131.1v53.15l30.686,17.717v-53.15l-30.686-17.717z"/>
   <path id="path140" d="m214.8,148.82v53.15" stroke="#FFF" stroke-width="5"/>
  </g>
  <g id="g142" transform="translate(92.05782,53.1496)">
   <path id="path144" d="m184.12,131.1v53.15l30.686,17.717v-53.15l-30.686-17.717z"/>
   <path id="path146" d="m214.8,148.82v53.15" stroke="#FFF" stroke-width="1.25"/>
  </g>
 </g>
 <g id="g148" fill="#3465a4" transform="matrix(-0.2,0,0,0.2,96.1264,24.369833)">
  <g id="g150">
   <path id="path152" d="m184.12,131.1v53.15l30.686,17.717v-53.15l-30.686-17.717z"/>
   <path id="path154" d="m214.8,148.82v53.15" stroke="#FFF" stroke-width="5"/>
  </g>
  <g id="g156" transform="translate(30.68594,17.71653)">
   <path id="path158" d="m184.12,131.1v53.15l30.686,17.717v-53.15l-30.686-17.717z"/>
   <path id="path160" d="m214.8,148.82v53.15" stroke="#FFF" stroke-width="5"/>
  </g>
  <g id="g162" transform="translate(61.37188,35.43307)">
   <path id="path164" d="m184.12,131.1v53.15l30.686,17.717v-53.15l-30.686-17.717z"/>
   <path id="path166" d="m214.8,148.82v53.15" stroke="#FFF" stroke-width="5"/>
  </g>
  <g id="g168" transform="translate(92.05782,53.1496)">
   <path id="path170" d="m184.12,131.1v53.15l30.686,17.717v-53.15l-30.686-17.717z"/>
   <path id="path172" d="m214.8,148.82v53.15" stroke="#FFF" stroke-width="1.25"/>
  </g>
 </g>
 <g id="g174" fill="#3465a4" transform="matrix(-0.2,0,0,0.2,96.1264,42.369833)">
  <g id="g176">
   <path id="path178" d="m184.12,131.1v53.15l30.686,17.717v-53.15l-30.686-17.717z"/>
   <path id="path180" d="m214.8,148.82v53.15" stroke="#FFF" stroke-width="5"/>
  </g>
  <g id="g182" transform="translate(30.68594,17.71653)">
   <path id="path184" d="m184.12,131.1v53.15l30.686,17.717v-53.15l-30.686-17.717z"/>
   <path id="path186" d="m214.8,148.82v53.15" stroke="#FFF" stroke-width="5"/>
  </g>
  <g id="g188" transform="translate(61.37188,35.43307)">
   <path id="path190" d="m184.12,131.1v53.15l30.686,17.717v-53.15l-30.686-17.717z"/>
   <path id="path192" d="m214.8,148.82v53.15" stroke="#FFF" stroke-width="5"/>
  </g>
  <g id="g194" transform="translate(92.05782,53.1496)">
   <path id="path196" d="m184.12,131.1v53.15l30.686,17.717v-53.15l-30.686-17.717z"/>
   <path id="path198" d="m214.8,148.82v53.15" stroke="#FFF" stroke-width="1.25"/>
  </g>
 </g>
 <g id="g200" fill="#3465a4" transform="matrix(-0.2,0,0,0.2,96.1264,60.369833)">
  <path id="path202" d="m184.12,131.1v53.15l30.686,17.717v-53.15l-30.686-17.717z"/>
  <path id="path204" d="m214.8,148.82v53.15" stroke="#FFF" stroke-width="5"/>
 </g>
 <g id="g206" fill="#3465a4" transform="matrix(-0.2,0,0,0.2,89.989213,63.913139)">
  <path id="path208" d="m184.12,131.1v53.15l30.686,17.717v-53.15l-30.686-17.717z"/>
  <path id="path210" d="m214.8,148.82v53.15" stroke="#FFF" stroke-width="5"/>
 </g>
 <path id="path212" d="m47.029,93.677v10.63l-6.1372,3.5433v-10.63l6.1372-3.5433z" fill="#3465a4"/>
 <path id="path214" d="m40.892,97.22v10.63" fill="#3465a4" stroke="#FFF"/>
 <path id="path216" d="M54.155,111.29v14.632l-8.8872,5.1683v-14.63l8.8872-5.1683z" fill="#3465a4"/>
 <g id="g218" fill="#3465a4" transform="matrix(-0.2,0,0,0.2,77.714837,70.999753)">
  <path id="path220" d="m184.12,131.1v53.15l30.686,17.717v-53.15l-30.686-17.717z"/>
  <path id="path222" d="m214.8,148.82v53.15" stroke="#FFF" stroke-width="1.25"/>
 </g>
 <path id="path228" d="M54.155,111.29v14.632l-8.8872,5.1683v-14.63l8.8872-5.1683z" fill="#3465a4"/>
 <path id="path230" d="m54.038,123.42v2.6299l-8.8872,5.1683v-2.6299l8.8872-5.1683z" fill="#eeeeec"/>
 <path id="path232" d="m54.167,111.29-3.2188,1.875,0.08839,11.973,3.1304,0.77665v-14.625z" fill="#555753"/>
 <path id="path234" d="m47.184,115.65v11.625" stroke="#bacae0" stroke-width="0.25" fill="none"/>
</svg>
