<?xml version="1.0" encoding="UTF-8" standalone="no"?>
<svg viewBox="0 0 1222 1200" xmlns="http://www.w3.org/2000/svg" xmlns:xlink="http://www.w3.org/1999/xlink">
<defs>
<filter id="filter4938">
<feGaussianBlur stdDeviation="3.428"/>
</filter>
<linearGradient id="linearGradient4862">
<stop offset="0" stop-color="#2b1100"/>
<stop offset="1" stop-color="#a40"/>
</linearGradient>
<linearGradient id="linearGradient4838">
<stop offset="0" stop-color="#241c1c"/>
<stop offset="1" stop-color="#a40"/>
</linearGradient>
<linearGradient id="linearGradient4669">
<stop offset="0" stop-color="#f00"/>
<stop offset="1" stop-color="#2b0000"/>
</linearGradient>
<linearGradient id="linearGradient4648">
<stop offset="0" stop-color="#2b1100"/>
<stop offset="1" stop-color="#803300"/>
</linearGradient>
<linearGradient gradientUnits="userSpaceOnUse" id="linearGradient4182" x1="1114.37487" x2="1043.45854" y1="713.96242" y2="736.69088">
<stop offset="0" stop-color="#fff"/>
<stop offset="1" stop-color="#fff" stop-opacity="0"/>
</linearGradient>
<linearGradient gradientUnits="userSpaceOnUse" id="linearGradient4259" x1="929.2816" x2="1017.10392">
<stop offset="0"/>
<stop offset="1" stop-color="#800000"/>
</linearGradient>
<linearGradient gradientUnits="userSpaceOnUse" id="linearGradient4272" x1="662.96916" x2="1282.50007" y1="462.856" y2="903.28249">
<stop offset="0" stop-color="#ccc"/>
<stop offset="1" stop-color="#fff"/>
</linearGradient>
<linearGradient gradientUnits="userSpaceOnUse" id="linearGradient4280" x1="529.26118" x2="759.51506" y1="627.78121" y2="953.01985">
<stop offset="0" stop-color="#666"/>
<stop offset="1" stop-color="#fff"/>
</linearGradient>
<linearGradient gradientUnits="userSpaceOnUse" id="linearGradient4303" x1="964.85716" x2="1285.85717">
<stop offset="0" stop-color="#917c6f"/>
<stop offset="1" stop-color="#483e37"/>
</linearGradient>
<linearGradient gradientUnits="userSpaceOnUse" id="linearGradient4311" x1="670.17857" x2="661.78569" y1="867.18361" y2="897.71932">
<stop offset="0" stop-color="#6c5d53"/>
<stop offset="1" stop-color="#241f1c"/>
</linearGradient>
<linearGradient gradientUnits="userSpaceOnUse" id="linearGradient4480" x1="498.66792" x2="1452.74477" y1="857.89803" y2="960.93361">
<stop offset="0" stop-color="#22280b"/>
<stop offset=".25" stop-color="#449305"/>
<stop offset=".5" stop-color="#6f0"/>
<stop offset="1" stop-color="#22280b"/>
</linearGradient>
<linearGradient gradientUnits="userSpaceOnUse" id="linearGradient4488" x1="782.97429" x2="951.64323">
<stop offset="0" stop-color="#520"/>
<stop offset="1" stop-color="#520" stop-opacity="0"/>
</linearGradient>
<linearGradient gradientUnits="userSpaceOnUse" id="linearGradient4498" x1="522.02794" x2="1169.77537" y1="774.99373" y2="1181.07501">
<stop offset="0" stop-color="#6f0"/>
<stop offset=".4366" stop-color="#22280b"/>
<stop offset="1" stop-color="#55d400"/>
</linearGradient>
<linearGradient gradientUnits="userSpaceOnUse" id="linearGradient4520" x1="561.28572" x2="630.14286">
<stop offset="0" stop-color="#d40000"/>
<stop offset="1" stop-color="#500"/>
</linearGradient>
<linearGradient gradientUnits="userSpaceOnUse" id="linearGradient4528" x1="612.56651" x2="744.27354">
<stop offset="0" stop-color="#f00"/>
<stop offset="1" stop-color="#800000"/>
</linearGradient>
<linearGradient gradientUnits="userSpaceOnUse" id="linearGradient4622" x1="838.49998" x2="908.64286">
<stop offset="0" stop-color="#2b1100"/>
<stop offset="1" stop-color="#2b1100"/>
</linearGradient>
<linearGradient gradientUnits="userSpaceOnUse" id="linearGradient4780" x1="810.21423" x2="825" y1="801.64288" y2="870.5">
<stop offset="0" stop-color="#6c5d53"/>
<stop offset="1" stop-opacity="0"/>
</linearGradient>
<linearGradient gradientUnits="userSpaceOnUse" id="linearGradient4800" x1="869.46857" x2="1079.2963" y1="258.24997" y2="529.79645">
<stop offset="0" stop-color="#6c5d53"/>
<stop offset="1" stop-color="#483e37" stop-opacity="0"/>
</linearGradient>
<linearGradient gradientUnits="userSpaceOnUse" id="linearGradient4819" x1="325.92859" x2="355.35715" y1="470.71426" y2="692.64288">
<stop offset="0" stop-color="#6c5d53"/>
<stop offset="1" stop-color="#6c5d53" stop-opacity="0"/>
</linearGradient>
<linearGradient gradientUnits="userSpaceOnUse" id="linearGradient4850" x1="875.45636" x2="906.94641">
<stop offset="0" stop-color="#241c1c"/>
<stop offset="1" stop-color="#803300"/>
</linearGradient>
<linearGradient gradientUnits="userSpaceOnUse" id="linearGradient4934" x1="967.75659" x2="1078.8126" y1="386.83231" y2="466.63434">
<stop offset="0"/>
<stop offset="1" stop-color="#ff2a2a"/>
</linearGradient>
<linearGradient gradientUnits="userSpaceOnUse" id="linearGradient4590" x1="824.99998" x2="861.49998" xlink:href="#linearGradient4648"/>
<linearGradient gradientUnits="userSpaceOnUse" id="linearGradient4606" x1="813.14286" x2="886.67857" xlink:href="#linearGradient4648"/>
<linearGradient gradientUnits="userSpaceOnUse" id="linearGradient4646" x1="860.10716" x2="930.78569" xlink:href="#linearGradient4648"/>
<linearGradient gradientUnits="userSpaceOnUse" id="linearGradient4654" x1="887.07145" x2="947.39286" xlink:href="#linearGradient4648"/>
<linearGradient gradientUnits="userSpaceOnUse" id="linearGradient4675" x1="146.45322" x2="159.06857" xlink:href="#linearGradient4669" y1="464.04636" y2="418.58948"/>
<linearGradient gradientUnits="userSpaceOnUse" id="linearGradient4679" x1="443.9736" x2="456.58895" xlink:href="#linearGradient4669" y1="446.87879" y2="401.42191"/>
<linearGradient gradientUnits="userSpaceOnUse" id="linearGradient4683" x1="477.81371" x2="490.42906" xlink:href="#linearGradient4669" y1="428.69604" y2="383.23916"/>
<linearGradient gradientUnits="userSpaceOnUse" id="linearGradient4687" x1="507.61321" x2="520.22856" xlink:href="#linearGradient4669" y1="408.49299" y2="363.03611"/>
<linearGradient gradientUnits="userSpaceOnUse" id="linearGradient4691" x1="541.9584" x2="554.57375" xlink:href="#linearGradient4669" y1="385.76456" y2="340.30768"/>
<linearGradient gradientUnits="userSpaceOnUse" id="linearGradient4695" x1="574.28328" x2="586.89863" xlink:href="#linearGradient4669" y1="364.55136" y2="319.09448"/>
<linearGradient gradientUnits="userSpaceOnUse" id="linearGradient4699" x1="603.5777" x2="616.19305" xlink:href="#linearGradient4669" y1="345.35846" y2="299.90158"/>
<linearGradient gradientUnits="userSpaceOnUse" id="linearGradient4705" x1="634.38735" x2="647.0027" xlink:href="#linearGradient4669" y1="321.1148" y2="275.65792"/>
<linearGradient gradientUnits="userSpaceOnUse" id="linearGradient4709" x1="664.18685" x2="676.8022" xlink:href="#linearGradient4669" y1="300.40667" y2="254.94979"/>
<linearGradient gradientUnits="userSpaceOnUse" id="linearGradient4713" x1="687.42036" x2="700.03571" xlink:href="#linearGradient4669" y1="276.66809" y2="231.21121"/>
<linearGradient gradientUnits="userSpaceOnUse" id="linearGradient4717" x1="721.00049" x2="733.61584" xlink:href="#linearGradient4669" y1="252.59775" y2="207.14087"/>
<linearGradient gradientUnits="userSpaceOnUse" id="linearGradient4721" x1="746.51428" x2="759.12963" xlink:href="#linearGradient4669" y1="219.59447" y2="174.13759"/>
<linearGradient gradientUnits="userSpaceOnUse" id="linearGradient4725" x1="772.27317" x2="784.88852" xlink:href="#linearGradient4669" y1="190.80512" y2="145.34824"/>
<linearGradient gradientUnits="userSpaceOnUse" id="linearGradient4729" x1="799.54729" x2="812.16264" xlink:href="#linearGradient4669" y1="155.95486" y2="110.49798"/>
<linearGradient gradientUnits="userSpaceOnUse" id="linearGradient4733" x1="825.81126" x2="838.42661" xlink:href="#linearGradient4669" y1="132.72135" y2="87.26447"/>
<linearGradient gradientUnits="userSpaceOnUse" id="linearGradient4745" x1="844.75162" x2="846.50783" xlink:href="#linearGradient4669" y1="115.04368" y2="82.71879"/>
<linearGradient gradientUnits="userSpaceOnUse" id="linearGradient4844" x1="897.77777" x2="937.21429" xlink:href="#linearGradient4838" y1="717.67859" y2="705.71429"/>
<linearGradient gradientUnits="userSpaceOnUse" id="linearGradient4852" x1="888.13489" x2="930.07141" xlink:href="#linearGradient4838" y1="719.28571" y2="705"/>
<linearGradient gradientUnits="userSpaceOnUse" id="linearGradient4868" x1="978.9162" x2="999.28229" xlink:href="#linearGradient4862" y1="741.9693" y2="741.79077"/>
<linearGradient gradientUnits="userSpaceOnUse" id="linearGradient4872" x1="996.05908" x2="1008.2109" xlink:href="#linearGradient4862" y1="743.2193" y2="741.61218"/>
<linearGradient gradientUnits="userSpaceOnUse" id="linearGradient4876" x1="1004.0948" x2="1018.7466" xlink:href="#linearGradient4862" y1="743.04071" y2="741.43359"/>
<radialGradient cx="858.57141" cy="850" gradientUnits="userSpaceOnUse" id="radialGradient4886" r="15.85714">
<stop offset="0" stop-color="#fc0"/>
<stop offset="1" stop-color="#2b2200"/>
</radialGradient>
</defs>
<g transform="translate(-268.22596,99.99498)">
<path d="m1085.7635,478.52422c-50.272,1.0374-91.9499-10.39651-143.29118-16.94063l5.05077-109.09647 138.24041,126.0371z" fill="url(#linearGradient4934)" stroke="#000" stroke-width="6" transform="translate(268.22596,.00502)"/>
<path d="m540.88762,833.79075c-29.34853,27.78755-68.20368,30.3878-105.35932,37.49084 105.34971,62.04852 197.90136,135.19421 280.70185,216.79481 228.40709-45.3592 531.84625-83.8764 762.27855-79.8718-23.5193-55.26725-126.5207-107.34416-172.4201-147.51824l-640.91488-90.81096-124.2861,63.91535" fill="url(#linearGradient4480)" stroke="#000"/>
<path d="m567.85714,842.36218c-27.25875,24.35313-63.34719,26.63201-97.85714,32.85714 97.84821,54.3796 183.80966,118.48479 260.71429,189.99998 212.14322-39.753 473.03451-83.61109 687.05871-80.10149-21.8446-48.43655-96.5704-83.97545-139.2015-119.1842l-710.71436-23.57143" fill="url(#linearGradient4498)" stroke="#000"/>
<path d="m758.57143,951.6479 524.28577-41.42857c-18.7737-177.16755-67.1418-334.86019-36.8978-522.53154l-290.24512-252.46847-290.2451,319.61133c44.62499,166.39484 70.59504,322.81171 92.38796,496.81725" fill="url(#linearGradient4272)" stroke="#000" stroke-width="5"/>
<path d="m758.57143,951.6479 524.28577-41.42857c-18.7737-177.16755-81.2839-328.79927-51.0399-516.47062-87.5032-53.86209-178.1653-128.25676-271.05226-217.11314-76.83889,108.60056-164.98626,205.89264-274.08266,282.23569 44.62499,166.39484 49.38184,318.7711 71.17476,492.77664" fill="url(#linearGradient4272)" filter="url(#filter4938)" opacity=".4674" stroke="#000" stroke-width="5"/>
<path d="m758.57143,951.6479 524.28577-41.42857c-18.7737-177.16755-97.4463-320.71805-67.2023-508.3894-87.5032-53.86209-160.9927-120.17554-253.87971-209.03192-76.83889,108.60056-144.78321,203.87234-253.87961,280.21539 44.62499,166.39484 28.16864,304.62896 49.96156,478.6345" fill="url(#linearGradient4272)" filter="url(#filter4938)" opacity=".4674" stroke="#fff" stroke-width="5"/>
<path d="m819.89203,943.79073 172.10795-15.89748c-26.67492-95.28531-31.38954-193.06553-34.07495-284.10251-65.78454,23.3219-136.9516,33.12767-202.73614,30.7463 26.78595,71.94337 56.30129,188.51814 63.22818,269.25369" fill="#333" opacity=".5939"/>
<path d="m817.93678,943.79076 159.77751-14.11428c-25.83608-92.94989-26.2515-181.36575-28.85246-270.17143-63.71584,22.75028-127.43169,20.01279-191.14754,17.68979 25.94363,70.18005 52.08485,187.83918 58.79391,266.59592" fill="#333" stroke="#000" stroke-width="6"/>
<path d="m1001.4286,653.79075c42.7004,10.32562 93.5336-9.675 132.8571-12.85714-3.5016,54.72826 5.7895,104.58647 20,162.85714-35.0552-5.96959-102.5715-.6662-141.4286,8.57143 9.9809-52.85714-3.5145-105.71429-11.4285-158.57143" fill="#4d4d4d" stroke="#000" stroke-width="6"/>
<path d="m1015.7143,667.35319c34.719,8.40349 76.0507-7.87399 108.024-10.46377-2.8471,44.54053 4.7074,85.11758 16.2617,132.5411-28.5028-4.85834-83.3993-.54219-114.9933,6.97585 8.1153-43.01772-2.8576-86.03546-9.2924-129.05318" fill="#4d4d4d" stroke="#000" stroke-width="6"/>
<path d="m1022.8572,674.13441c30.9808,6.05347 66.9304-8.61498 95.2286-10.90858-2.5198,39.44666 4.1663,77.40344 14.3925,119.40339-25.1003-1.65107-72.1716,1.03504-100.513,6.68314 5.1622-39.10818-3.413-77.07994-9.1081-115.17795" fill="#00f" stroke="#000" stroke-width="6"/>
<path d="m1068.5715,676.6479c1.9818,34.28571 4.4348,66.17232 17.6875,100.45803" fill="none" stroke="#fff" stroke-width="6"/>
<path d="m1063.6148,676.28099c16.6503-1.90149 33.1105-7.09975 51.1184-9.39335-1.6035,39.44666 4.5453,73.11028 14.5884,112.58485-18.4525-1.14599-47.8559-.35392-64.8925,1.5061 4.5707-38.09802 3.0623-66.09451-.5618-104.19252" fill="url(#linearGradient4182)"/>
<path d="m1035.7725,737.10963c34.2857-1.9818 47.232.23714 81.5177-13.01556" fill="none" stroke="#fff" stroke-width="6"/>
<path d="m828.57143,940.93361 120.07178-13.03046c-20.46755-82.5697-17.2611-150.50511-19.3216-229.3934-50.47619,20.20964-92.87116,15.25248-143.34735,13.1889 20.55275,62.34268 40.81773,157.25308 46.1327,227.21465" fill="url(#linearGradient4488)" stroke="#873515" stroke-width="6"/>
<path d="m661.56071,440.903-129.29953-50.50763c24.46016,164.8301 45.58932,332.93633 36.3655,492.95444 69.36259,8.75709 129.13191,36.70072 187.88837,66.67007-13.55783-172.72123-49.17503-341.7659-94.95434-509.11688" fill="url(#linearGradient4280)" stroke="#000" stroke-width="6"/>
<path d="m397.14286,462.85714-126.42857-7.85714 21.42857,155.71429c44.28027,15.00908 92.18381,23.97937 147.85714,20l-42.85714-167.85715" fill="url(#linearGradient4819)" transform="translate(268.22596,.00502)"/>
<path d="m959.55571,150.98922c-91.35065,111.47155-190.89044,210.6594-292.94424,306.07622l18.18275,72.73098c104.4237-89.57881 210.02196-177.10214 304.05591-284.86302 84.17937,83.50594 163.30807,158.59395 247.48737,223.24371l10.1016-78.79189-286.88339-238.396" fill="url(#linearGradient4800)" opacity=".6207"/>
<path d="m583.06467,537.46974c125.20298-122.17141 257.14503-241.08514 377.50119-387.49067 118.52244,119.8757 269.54234,225.26403 398.00004,325.26912-1.5602-34.55858 16.8119-74.43863 33.3351-90.91374-158.9306-75.21905-281.3015-189.34336-424.06973-328.96309-130.36876,169.49491-266.24017,282.99228-411.32642,427.95805-6.85955,20.75689 8.02377,37.02124 26.55982,54.14033z" fill="#a00" stroke="#000" stroke-width="6"/>
<path d="m960.56586,57.04503c-73.39975,17.66951-145.72351,33.45601-197.9899,14.14214-126.85749,144.41097-279.54118,242.58264-438.28365,339.16615 6.69306,2.64691 1.06277,4.9638 42.70034,25.53598 30.01601,14.83023 154.48658,47.5416 189.51219,47.44011 187.20864-138.34325 293.21831-282.79254 408.34673-426.28438" fill="#f00" stroke="#000" stroke-width="6"/>
<path d="m554.48454,483.32941c-4.041,13.97368 3.21724,34.6865 20.70812,54.04315-83.50594-13.14839-165.49666-33.69591-249.0026-68.18529 5.68172-18.18275 1.29331-35.35534-3.53553-53.53809 75.37389,33.25249 151.12607,61.07797 231.83001,67.68023" fill="#a00" stroke="#000" stroke-width="6"/>
<path d="m1042.2733,413.20543c0,45.04022-20.2294,81.55254-54.32128,81.55254s-66.66704-36.51232-66.66704-81.55254 27.63689-82.72596 61.72875-82.72596 59.25957,37.68573 59.25957,82.72596z" fill="#502d16" fill-rule="evenodd" stroke="#000" stroke-width="6"/>
<path d="m1031.2765,413.1238c0,38.77348-16.5521,70.2056-44.44668,70.2056s-54.54824-31.43212-54.54824-70.2056 22.61303-71.21576 50.50763-71.21576 48.48729,32.44227 48.48729,71.21576z" fill="#f00" fill-rule="evenodd" stroke="#000" stroke-width="6"/>
<path d="m1014.1039,413.1238c0,38.77348-13.6808,70.2056-36.73652,70.2056s-45.08579-31.43212-45.08579-70.2056 18.69036-71.21576 41.7461-71.21576 40.07621,32.44227 40.07621,71.21576z" fill="url(#linearGradient4259)" fill-rule="evenodd" stroke="#000" stroke-width="6"/>
<path d="m1031.2765,413.1238c0,38.77348-16.5521,70.2056-44.44668,70.2056s-54.54824-31.43212-54.54824-70.2056 22.61303-71.21576 50.50763-71.21576 48.48729,32.44227 48.48729,71.21576z" fill="#fff" fill-rule="evenodd" opacity=".5479" stroke="#000" stroke-width="6"/>
<path d="m935.36882,415.18359c33.09524,1.64509 59.04763.23343 92.49998-4.64286" fill="none" stroke="#fff" stroke-width="3"/>
<path d="m1282.8572,908.79075-7.8572-62.85714-23.5714-2.85714-20,10.71428 15,57.85715-10,.71428-12.8571-47.85714-19.2858-8.57143-13.5714,2.85714-17.8571,5-1.4286,32.14286 10,20-12.1429,1.42857-10.7142-23.57143 4.2857-37.85714-17.1429-5.71429-20,3.57143-4.9999,24.28571-1.4286,25.7143 16.4285,15.71428-20,2.14285-9.2857-16.42857 2.8571-28.57142 5-29.28572-30.7142-.71428-10.7143,19.28571-7.8572,43.57143v15.71428l-12.1428,1e-005-1.4286-13.57143 7.8571-42.14286h-29.2857l-3.5714,11.42857-6.4286,28.57143 7.8571,17.14286v2.14286h-9.2857l-12.8571-20.71429 10-37.14286-27.85716-8.57143-20,9.28572c2.81014,20.71428 3.57572,41.42857 13.57143,62.14285l301.42863-25" fill="url(#linearGradient4303)" stroke="#000" stroke-width="6"/>
<path d="m813.57143,945.21932-9.28572-67.14285-17.85714-2.85715-7.85714,16.42858h-25.71429l7.14286,57.85714 53.57143-4.28572" fill="#483e37" stroke="#000" stroke-width="6"/>
<path d="m568.92857,883.61218 1.60715-35 9.73691,2.14498 4.72737,3.74788 3.66748-3.91133 7.76109-4.6601 6.42857,7.85714-3.57143,20-5,10.71429 7.85715,2.67857 5.71428-13.39286 4.28572-18.21428 3.73792-3.47611 9.8335-3.30961 7.85715,4.28572-2.32143,21.96428 1.96429,23.21428 9.10714,2.50001-1.78572-23.75 1.60715-21.07143 10.52387.3338 8.76184,5.38049 1.42857,5.71428v18.57143l-5.71428,11.42857-1.42858,9.28572 8.21429,3.21429 1.25-9.82143 6.96429-14.82144-.53572-17.49999 18.39286-12.50001 20,4.28572-.71429,26.42857-10.71428,10.71429-1.42857,24.99999 11.07143,4.28572 .89286-24.28571 11.78571-13.57143 .53571-26.42857 13.57143-1.42858 12.14286,7.14286 8.57143,82.14286c-61.72787-27.72805-122.08326-49.5838-185.71429-65.89286" fill="url(#linearGradient4311)" stroke="#000" stroke-width="6"/>
<path d="m764.28572,69.50504c1.05948-12.93269 11.40002-24.28384 27.85714,5.71428 12.9507-22.87456 28.53026-17.26968 35,3.57143 8.14539-8.06492 13.47018-28.66954 28.57143-3.57143 1.80646,3.00232 14.16503-38.64264 27.85714-2.85714 8.86534-17.72818 10.37668-32.46031 27.85714-6.42857 1.32233,1.96921 21.67518-45.25651 32.14286-7.85714 19.23705-29.47354 29.76037-36.82762 24.28571-3.57143-70.00805,28.97165-134.20277,40.45799-202.14285,15.71428" fill="#501616" stroke="#000" stroke-width="6"/>
<path d="m586.42689,515.01615c122.34584-130.02856 256.63995-246.48869 376.99611-392.89422 118.5224,119.8757 252.3995,223.12117 380.8572,323.12626 4.8684-27.41572 11.8119-37.29577 28.3351-53.77088-163.7881-68.27976-268.8681-164.6564-403.35546-316.10596-130.36876,169.49492-264.81159,312.99229-400.61213,417.24378 4.7572,8.12998 1.26343,5.78701 17.77918,22.40102z" fill="#501616" stroke="#000" stroke-width="6"/>
<path d="m538.77025,493.68655c-.46957,8.2594.99388,16.38121 10.98476,29.30928-84.57736-17.79124-128.41687-28.47183-209.42281-61.17549 1.39601-6.39704.76285-17.24439-2.99456-28.28428 75.37389,33.25249 120.93353,51.08848 201.99461,60.90503" fill="#501616" stroke="#000" stroke-width="6"/>
<path d="m828.57143,940.93361 127.14285-10c-20.46755-82.5697-20.79664-161.11171-22.85714-240-50.47619,20.20964-100.95238,17.77786-151.42857,15.71428 20.55275,62.34268 41.82789,164.32415 47.14286,234.28572" fill="#520" stroke="#000" stroke-width="6"/>
<path d="m790,713.79075 23.57143,1.42857c22.90132,74.81836 32.12484,146.90116 46.42857,220.00001l-24.28572,2.85713c-10.3454-75.49254-20.81035-150.61299-45.71428-224.28571" fill="none" stroke="url(#linearGradient4590)" stroke-width="3"/>
<path d="m814.64286,715.21932 24.64286.71429c22.90132,74.81836 31.58913,144.40116 45.89286,217.50001l-23.57144,1.7857c-13.20254-75.49254-26.34606-136.14871-46.24999-219.10714" fill="none" stroke="url(#linearGradient4606)" stroke-width="3"/>
<path d="m840,715.93361 21.07143-.71429c22.90132,74.81836 31.7677,142.07973 46.07143,215.17858l-21.78572,3.03571c-10.3454-75.49254-25.45321-136.68442-45.35714-217.5" fill="none" stroke="url(#linearGradient4622)" stroke-width="3"/>
<path d="m861.60714,715.21933 24.46429-1.60715c22.90132,74.81836 28.91055,140.65116 43.21428,213.75001l-20.71429,3.0357c-13.20254-75.49254-27.41749-137.3987-45.89285-214.64285" fill="none" stroke="url(#linearGradient4646)" stroke-width="3"/>
<path d="m888.57143,713.07647c11.97568-2.28469 23.79031-4.24729 37.14286-9.28572 .75846,85.53265 5.87484,148.50831 20.17857,221.60716l-15.71429,1.7857c-10.3454-75.49254-27.4175-131.86299-41.60714-214.10714" fill="none" stroke="url(#linearGradient4654)" stroke-width="3"/>
<path d="m827.14285,831.42859c0,4.33938-3.51776,7.85714-7.85714,7.85714s-7.85715-3.51776-7.85715-7.85714 3.51777-7.85714 7.85715-7.85714 7.85714,3.51776 7.85714,7.85714z" fill-rule="evenodd" stroke="#000" transform="translate(50,-41.92353)"/>
<path d="m871.42855,850c0,7.1008-5.75634,12.85714-12.85714,12.85714s-12.85714-5.75634-12.85714-12.85714 5.75634-12.85714 12.85714-12.85714 12.85714,5.75634 12.85714,12.85714z" fill="url(#radialGradient4886)" fill-rule="evenodd" stroke="#000" stroke-width="6" transform="translate(54.28571,-31.92353)"/>
<path d="m54.54824,409.56073c-6.22239,22.25693 25.49383,20.38811 28.28427,16.66752-.39749.39749 1.97829,23.01627 31.8198,11.61676 2.73892,7.61913 5.92385,23.86832 30.80966,12.12183-6.08671,6.41461 14.07751,26.63343 28.78934,9.59645 .66236,13.36159 13.66086,18.1091 25.12755,6.69225-1.59437,12.93035 13.46547,21.76178 28.41054,7.44988 6.926,25.53065 31.31472,8.08122 31.31472,8.08122s8.00121,27.81996 29.79951,2.52538l22.22336-19.69797-231.83001-69.19545-24.74874,14.14213" fill="url(#linearGradient4675)" stroke="#000" stroke-width="6" transform="translate(268.22596,.00502)"/>
<path d="m352.06862,392.39316c-6.22239,22.25693 25.49383,20.38811 28.28427,16.66752-.39749.39749 1.9783,23.01627 31.8198,11.61676 2.73892,7.61913 5.92385,23.86832 30.80966,12.12183-6.08671,6.41461 14.07751,26.63343 28.78934,9.59645 .66236,13.36159 13.66086,18.1091 25.12755,6.69225-1.59437,12.93035 13.46547,21.76178 28.41054,7.44988 6.926,25.53065 26.26396,6.56599 26.26396,6.56599s-.08,30.34534 25.25382,6.06092l26.76904-23.73859-226.77924-67.17514-24.74874,14.14213" fill="url(#linearGradient4679)" stroke="#000" stroke-width="6"/>
<path d="m385.90873,374.21041c-6.22239,22.25693 25.49383,20.38811 28.28427,16.66752-.39749.39749 1.9783,23.01627 31.8198,11.61676 2.73892,7.61913 1.37817,18.81755 26.26398,7.07106-3.05626,6.91969 18.62319,31.6842 33.33502,14.64722 1.67251,16.89712 13.66086,18.1091 25.12755,6.69225-1.59437,12.93035 18.01116,24.28716 32.95623,9.97526 6.926,25.53065 29.29441,14.14214 29.29441,14.14214l37.37565-29.79951-219.70817-65.15483-24.74874,14.14213" fill="url(#linearGradient4683)" stroke="#000" stroke-width="6"/>
<path d="m385.90873,374.21041c-6.22239,22.25693 25.49383,20.38811 28.28427,16.66752-.39749.39749 1.9783,23.01627 31.8198,11.61676 2.73892,7.61913 1.37817,18.81755 26.26398,7.07106-3.05626,6.91969 18.62319,31.6842 33.33502,14.64722 1.67251,16.89712 13.66086,18.1091 25.12755,6.69225-1.59437,12.93035 18.01116,24.28716 32.95623,9.97526 6.926,25.53065 29.29441,14.14214 29.29441,14.14214l37.37565-29.79951-219.70817-65.15483-24.74874,14.14213" fill="url(#linearGradient4683)" stroke="#000" stroke-width="6"/>
<path d="m415.70823,354.00736c-6.22239,22.25693 25.49383,20.38811 28.28427,16.66752-.39749.39749 1.9783,23.01627 31.8198,11.61676 2.73892,7.61913 5.92385,23.86832 30.80966,12.12183-6.08671,6.41461 14.07751,26.63343 28.78934,9.59645 .66236,13.36159 13.66086,18.1091 25.12755,6.69225-1.59437,12.93035 18.01116,24.28716 32.95623,9.97526 6.926,25.53065 26.76903,12.12183 26.76903,12.12183l37.37565-32.32489-208.09142-67.17513-33.84011,20.70812" fill="url(#linearGradient4687)" stroke="#000" stroke-width="6"/>
<path d="m450.05342,331.27893c-6.22239,22.25693 25.49383,20.38811 28.28427,16.66752-.39749.39749 7.02906,23.52135 36.87056,12.12184 2.73892,7.61913.87309,23.36324 25.7589,11.61675-6.08671,6.41461 14.07751,26.63343 28.78934,9.59645 .66236,13.36159 13.66086,18.1091 25.12755,6.69225-1.59437,12.93035 18.01116,24.28716 32.95623,9.97526 6.926,25.53065 21.21319,11.11168 21.21319,11.11168l38.3858-35.86043-203.04065-64.14467-34.34519,22.22335" fill="url(#linearGradient4691)" stroke="#000" stroke-width="6"/>
<path d="m482.3783,310.06573c-6.22239,22.25693 25.49383,20.38811 28.28427,16.66752-.39749.39749-1.05216,19.48074 28.78934,8.08123 2.73892,7.61913 8.95431,27.40385 33.84012,15.65736-6.08671,6.41461 17.61304,26.63343 32.32487,9.59645 .66236,13.36159 17.70147,25.18017 29.16816,13.76332-1.59437,12.93035 22.05177,27.82269 36.99684,13.51079l43.43655-39.90104-198.49496-59.59898-34.34519,22.22335" fill="url(#linearGradient4695)" stroke="#000" stroke-width="6"/>
<path d="m511.67272,290.87283c-6.22239,22.25693 25.49383,20.38811 28.28427,16.66752-.39749.39749 1.9783,23.01627 31.8198,11.61676 2.73892,7.61913 5.92385,23.86832 30.80966,12.12183-6.08671,6.41461 17.61304,26.63343 32.32487,9.59645 .66236,13.36159 17.70147,25.18017 29.16816,13.76332-1.59437,12.93035 18.51624,24.79223 33.46131,10.48033l40.91116-40.40611-192.43404-56.06345-34.34519,22.22335" fill="url(#linearGradient4699)" stroke="#000" stroke-width="6"/>
<path d="m542.48237,266.62917c-6.22239,22.25693 25.49383,20.38811 28.28427,16.66752-.39749.39749 1.9783,23.01627 31.8198,11.61676 2.73892,7.61913 5.92385,23.86832 30.80966,12.12183-6.08671,6.41461 17.61304,26.63343 32.32487,9.59645 .66236,13.36159 17.70147,25.18017 29.16816,13.76332-1.59437,12.93035 13.97055,22.77192 28.91562,8.46002l41.92132-43.43656-188.89851-51.01269-34.34519,22.22335" fill="url(#linearGradient4705)" stroke="#000" stroke-width="6"/>
<path d="m572.28187,245.92104c-6.22239,22.25693 25.49383,20.38811 28.28427,16.66752-.39749.39749-1.05216,19.98581 28.78934,8.5863 2.73892,7.61913 5.41878,23.86832 30.30459,12.12183-6.08671,17.02121 18.62319,27.13851 33.33502,10.10153 .66236,13.36159 13.66086,22.65479 25.12755,11.23794-1.59437,12.93035 14.9807,23.27699 29.92577,8.96509l43.43655-44.95179-184.8579-44.95177-34.34519,22.22335" fill="url(#linearGradient4709)" stroke="#000" stroke-width="6"/>
<path d="m598.54584,226.72815c-6.22239,22.25693 22.46337,15.84242 25.25381,12.12183-.39749.39749-1.05216,19.98581 28.78934,8.5863 2.73892,7.61913 5.41878,23.86832 30.30459,12.12183-6.08671,17.02121 18.62319,27.13851 33.33502,10.10153 .66236,13.36159 13.66086,22.65479 25.12755,11.23794-1.59437,12.93035 14.9807,23.27699 29.92577,8.96509l41.41624-46.9721-180.81728-40.91115-33.84012,24.24365" fill="url(#linearGradient4713)" stroke="#000" stroke-width="6"/>
<path d="m632.12597,202.65781c-6.22239,22.25693 22.46337,15.84242 25.25381,12.12183-.39749.39749-1.05216,19.98581 28.78934,8.5863 2.73892,7.61913 5.41878,23.86832 30.30459,12.12183-6.08671,17.02121 12.0572,28.65374 26.76903,11.61676 .66236,13.36159 14.67101,21.64464 26.1377,10.22779-1.59437,12.93035 13.46547,19.23638 28.41054,4.92448l40.91117-47.98226-173.24114-36.36546-33.84012,24.24365" fill="url(#linearGradient4717)" stroke="#000" stroke-width="6"/>
<path d="m657.63976,169.65453c-6.22239,22.25693 22.46337,15.84242 25.25381,12.12183-.39749.39749-4.08262,19.98581 25.75888,8.5863 1.24749,7.61913.1503,23.86832 33.33505,12.12183-6.08671,17.02121 16.60289,27.64359 31.31472,10.60661-10.3411,13.36159 6.79468,22.65479 21.59201,11.23794-3.80457,17.35075 11.64289,22.88154 28.41054,4.92448l40.91117-47.98226-173.24114-36.36546-33.84012,24.24365" fill="url(#linearGradient4721)" stroke="#000" stroke-width="6"/>
<path d="m683.39865,140.86518c-6.22239,22.25693 22.46337,15.84242 25.25381,12.12183-.39749.39749-4.08262,19.98581 25.75888,8.5863 1.24749,7.61913.1503,23.86832 33.33505,12.12183-6.08671,17.02121 16.60289,27.64359 31.31472,10.60661 .66236,13.36159 10.12532,22.65479 21.59201,11.23794-3.80457,17.35075 15.17842,18.84093 31.94607.88387l37.37564-45.96196-178.79698-28.78931-28.28428,18.68781" fill="url(#linearGradient4725)" stroke="#000" stroke-width="6"/>
<path d="m708.65246,118.13675c-6.22239,22.25693 18.92784,13.31704 21.71828,9.59645-.39749.39749-1.05216,20.49089 28.78934,9.09138 1.24749,7.61913-2.37508,16.79725 30.80967,5.05076-.0258,17.52628 21.65365,24.61313 36.36548,7.57615-2.08959,14.46237 1.08038,28.4951 27.14785,11.23794-3.80457,17.35075 9.62258,18.84093 26.39023.88387l37.37564-45.96196-181.32236-18.18271-26.26398,19.69796" fill="url(#linearGradient4729)" stroke="#000" stroke-width="6"/>
<path d="m734.91643,96.92355c-6.22239,22.25693 18.92784,11.29673 21.71828,7.57614-.39749.39749-1.05216,20.49089 28.78934,9.09138 1.24749,7.61913-2.37508,16.79725 30.80967,5.05076-.0258,17.52628 18.11812,29.15882 32.82995,12.12184 .66236,13.36159 14.92354,16.08879 26.39023,4.67194-3.80457,17.35075 11.39035,18.84093 28.158.88387l60.10407-78.79191c-58.5894,27.63344-124.61539,35.9278-202.03049,15.15232l-23.73859,23.2335" fill="url(#linearGradient4733)" stroke="#000" stroke-width="6"/>
<path d="m626.97402,313.68686c40.85359-21.92395 80.72078-46.31391 114.05443-87.03773-14.22336-60.91807-3.0842-126.90864.2451-191.33724l-125.70707-3.34735c12.27956,93.90744 14.32302,187.81489 11.40754,281.72233z" fill="url(#linearGradient4528)" stroke="#000" stroke-width="6"/>
<path d="m627.14286,313.79075c-20.86593,3.16042-38.1809-.78106-51.42858-12.85714 4.43611-94.7619-.64898-189.52381-11.42856-284.28571 13.06147,11.24675 25.81456,23.00746 49.99999,15.71429 15.32729,91.04913 11.8399,186.80193 12.85715,281.42857" fill="url(#linearGradient4520)" stroke="#000" stroke-width="6"/>
<path d="m740.71429,35.21933c-15.20538-3.26426-28.58215-4.84857-34.28572-15.71429-43.87326,10.32911-86.47018,7.33621-137.85715-5 10.7043,19.54379 23.58596,21.16141 45.71429,17.85714 44.70932,9.81596 84.55372,6.17609 125.71429,3.57143" fill="#2b0000" stroke="#000" stroke-width="6"/>
<path d="m754.86694,79.75095c-6.22239,22.25694 17.91769,10.79166 20.70813,7.07107-.39749.39749-2.06231,18.47058 27.77919,7.07108 3.01525,11.91227 11.00944,18.56501 31.06221,4.29315-.0258,17.52628 23.92649,19.30983 38.63832,2.27285 .66236,13.36159 14.16593,16.84641 25.63262,5.42956-3.80457,17.35075 8.10735,21.61885 24.875,3.66179l37.62818-46.21449c-58.5894,27.63345-120.82732,30.37196-198.24242,9.59648l-8.08123,7.57613" fill="url(#linearGradient4745)" stroke="#000" stroke-width="6"/>
<path d="m732.85714,816.42857 20.71429,90.71429 192.14286-11.42857-54.28572-93.57143-158.57143,14.28571" fill="url(#linearGradient4780)" transform="translate(268.22596,.00502)"/>
<path d="m735,816.42857c57.12946-15.40445 109.31633-14.19797 157.14285-12.85714 3.05804,5.40922 6.27119,9.33817 15,12.85714-51.88543,1.01035-111.4231,4.77828-161.42856,11.42857l-10.71429-11.42857" fill="#b3b3b3" stroke="#000" stroke-width="6" transform="translate(268.22596,.00502)"/>
<path d="m867.85714,652.85714c14.00821.0599 30.2269-4.06441 40.7143-9.28571-5.51474,56.57013 6.24509,77.2322 29.99999,148.57143-17.61904-4.7619-35.23809-5.71429-52.85714-2.85715-14.43938-50.77958-18.28341-90.1504-17.85715-136.42857z" fill="#520" stroke="#000" stroke-width="6" transform="translate(268.22596,.00502)"/>
<path d="m1002.4846,672.86216c-14.00816.0599-30.22683,1.64988-40.71423-3.57142 5.5148,56.57013 31.61204,65.80363 7.85714,137.14286 17.6191-4.7619 24.52381-10.00001 42.14289-7.14287 6.5823-56.49386-1.7166-78.72183-7.8572-125" fill="#520" stroke="#000" stroke-width="6"/>
<path d="m890.98214,654.28571c5.43678-1.01153 5.2269-.67156 12.14287-3.21429-5.51474,56.57013 5.17366,63.66079 28.92856,135.00002-7.08332-1.6369-5.68452-1.42859-9.01785-1.78573-14.43938-50.77958-32.47984-83.72183-32.05358-130z" fill="none" stroke="url(#linearGradient4844)" stroke-width="3" transform="translate(268.22596,.00502)"/>
<path d="m882.05358,656.25c3.11535-1.1901.58403-.49302 7.14286-1.96429 2.3424,37.28441 7.67366,58.66079 31.42856,130.00002-7.08332-1.6369-11.75595-.35717-15.08928-.71431-14.43938-50.77958-23.9084-81.04325-23.48214-127.32142z" fill="none" stroke="url(#linearGradient4852)" stroke-width="3" transform="translate(268.22596,.00502)"/>
<path d="m872.41072,656.42857c2.57964-.11867 5.22689.93555 7.5-.35715 2.3424,37.28441 1.7808,57.23223 25.5357,128.57146-7.61903-.56548-13.18451.89283-16.51784.53569-14.43938-50.77958-16.94412-82.47183-16.51786-128.75z" fill="none" stroke="url(#linearGradient4850)" stroke-width="3" transform="translate(268.22596,.00502)"/>
<path d="m854.28572,677.14286 25.71428-2.14286" fill="none" stroke="#000" stroke-width="6" transform="translate(268.22596,.00502)"/>
<path d="m869.28572,780 27.85714-.71429" fill="none" stroke="#000" stroke-width="6" transform="translate(268.22596,.00502)"/>
<path d="m979.44891,677.5943c-4.54387-.11867-5.22685-.58226-12.67854-1.87499 6.40766,50.4987 27.86204,59.37506 9.28571,124.28572 5.1191-1.72619 11.13095-4.28573 14.46432-4.4643 6.5823-56.49386-4.93089-71.66826-11.07149-117.94643z" fill="none" stroke="url(#linearGradient4868)" stroke-width="3"/>
<path d="m989.98462,677.41573c-4.54387-.11867-1.47685.84631-8.92854-.44642 5.15766,34.60584 20.18342,54.37506 11.78571,118.39286 2.97624-1.19047 3.9881-.7143 7.32151-.89287 6.5823-56.49386-4.03808-70.7754-10.17868-117.05357z" fill="none" stroke="url(#linearGradient4872)" stroke-width="3"/>
<path d="m1000.5203,676.88002c-4.54384-.11867-.9411,1.20345-8.39279-.0893 5.15766,34.60584 16.96909,53.30363 10.53569,117.5 2.9763-1.19047 1.8453,1.42856 5.1787,1.24999 6.5823-56.49386-1.181-72.38254-7.3216-118.66071z" fill="none" stroke="url(#linearGradient4876)" stroke-width="3"/>
<path d="m1000.6159,788.08991 25.2201-5.45548" fill="none" stroke="#000" stroke-width="6"/>
<path d="m994.90163,695.94705 25.22007-5.45548" fill="none" stroke="#000" stroke-width="6"/>
<path d="m840,828.57141c0,11.0457-8.95431,20-20,20s-20-8.9543-20-20 8.95431-20 20-20 20,8.95431 20,20z" fill="none" stroke="#000" stroke-width="6" transform="translate(46.42857,-60.49496)"/>
<path d="m895.71429,722.85714 17.14285-4.28571" fill="none" stroke="#000" stroke-width="3" transform="translate(268.22596,.00502)"/>
<path d="m351.53309-9.14749-1.01016,40.4061" fill="none" stroke="#000" stroke-width="6" transform="translate(268.22596,.00502)"/>
<path d="m576.32249-15.20339-1.01016,33.33503" fill="none" stroke="#000" stroke-width="6"/>
<path d="m705.62202-21.2643-1.01016,40.4061" fill="none" stroke="#000" stroke-width="6"/>
<path d="m731.88599-9.14247-1.01016,40.4061" fill="none" stroke="#000" stroke-width="6"/>
<path d="m274.76149-22.27948c77.43536,15.13295 131.12117,12.06123 189.90868-10.10153 2.1111,30.88722 21.80925,20.95388 45.45687,30.30458-52.52793,13.32111-105.05587,12.93324-157.5838,2.02031-28.81086,10.0229-51.54642-.32979-77.78175-21.2132" stroke="#000" stroke-width="6" transform="translate(268.22596,.00502)"/>
<path d="m713.75,444.82143c-2.37932,45.95238-.44103,89.40476 4.82143,135.35714" fill="none" stroke="#fff" stroke-width="3" transform="translate(268.22596,-99.99498)"/>
</g>
</svg>
